<?xml version="1.0" encoding="UTF-8"?>
<svg xmlns="http://www.w3.org/2000/svg" style="stroke-dasharray:none; shape-rendering:auto; font-family:'Arial'; text-rendering:auto; fill-opacity:1; color-interpolation:auto; color-rendering:auto; font-size:12; fill:black; stroke:black; image-rendering:auto; stroke-miterlimit:10; stroke-linecap:square; stroke-linejoin:miter; font-style:normal; stroke-width:1; stroke-dashoffset:0; font-weight:normal; stroke-opacity:1;" contentScriptType="text/ecmascript" preserveAspectRatio="xMidYMid meet" zoomAndPan="magnify" version="1.0" contentStyleType="text/css" xml:xlink="http://www.w3.org/1999/xlink" width="1781" height="1207"><rect x="0" y="183" width="1781" height="175" ry="0" rx="0" style="stroke:#000000; fill:#D9ECEC" /><g componentSequence="3"><text x="-270" y="7" transform="rotate(270)" text-anchor="middle" style="font-weight:bold;font-size:10px;stroke:none; fill:#434343"><tspan dy="14" x="-270">MATRIZ</tspan></text></g><rect x="0" y="740" width="1781" height="145" ry="0" rx="0" style="stroke:#000000; fill:#8DC7C7" /><g componentSequence="1"><text x="-812" y="7" transform="rotate(270)" text-anchor="middle" style="font-weight:bold;font-size:10px;stroke:none; fill:#434343"><tspan dy="14" x="-812">APROVAÇÃO OBRA</tspan></text></g><rect x="0" y="0" width="1781" height="184" ry="0" rx="0" style="stroke:#000000; fill:#F1F8F8" /><g componentSequence="5"><text x="-92" y="7" transform="rotate(270)" text-anchor="middle" style="font-weight:bold;font-size:10px;stroke:none; fill:#434343"><tspan dy="14" x="-92">OBRA</tspan></text></g><rect x="0" y="884" width="1781" height="323" ry="0" rx="0" style="stroke:#000000; fill:#71B9B9" /><g componentSequence="4"><text x="-1045" y="7" transform="rotate(270)" text-anchor="middle" style="font-weight:bold;font-size:10px;stroke:none; fill:#434343"><tspan dy="14" x="-1045">Aprovações</tspan></text></g><rect x="0" y="573" width="1781" height="171" ry="0" rx="0" style="stroke:#000000; fill:#A8D5D5" /><g componentSequence="2"><text x="-658" y="7" transform="rotate(270)" text-anchor="middle" style="font-weight:bold;font-size:10px;stroke:none; fill:#434343"><tspan dy="14" x="-658">CONTROLADORIA</tspan></text></g><rect x="0" y="358" width="1781" height="216" ry="0" rx="0" style="stroke:#000000; fill:#C0E0E0" /><g componentSequence="6"><text x="-466" y="7" transform="rotate(270)" text-anchor="middle" style="font-weight:bold;font-size:10px;stroke:none; fill:#434343"><tspan dy="14" x="-466">JURÍDICO</tspan></text></g><g sequence="4"><ellipse cx="317" cy="37" rx="17" ry="17" stroke-width="1" style="fill:url(#linearGradient66FF6696FF96B6FFB6_1078903381);" stroke="336633" /></g><g sequence="5"><rect x="270" y="400" width="106" height="56" ry="5" rx="5" style="fill:url(#linearGradientF8FBFEEDF5FCDEEDFAD4E7F8E2E5E9_1317610540);" stroke="191970" /></g><g componentSequence="5"><text x="323" y="417" text-anchor="middle" style="font-weight:bold;font-size:10px;stroke:none; fill:#333399"><tspan dy="14" x="323">Jurídico</tspan></text></g><g sequence="11"><polygon points=" 290 126 320 96 350 126 320 156 290 126" style="fill:url(#linearGradientFAFBFCFFFFCC_1253484837);" stroke="000000" /></g><g componentSequence="11"><text x="320" y="159" text-anchor="middle" style="font-weight:bold;font-size:10px;stroke:none; fill:#333399"><tspan dy="14" x="320">Opção</tspan></text></g><g sequence="15"><polygon points=" 420 259 450 229 480 259 450 289 420 259" style="fill:url(#linearGradientFAFBFCFFFFCC_263466519);" stroke="000000" /></g><path style="fill:none; stroke-width:6; stroke:#000000;" d="M440.0 259.0 L460.0 259.0" /><path style="fill:none; stroke-width:6; stroke:#000000;" d="M450.0 249.0 L450.0 269.0" /><g componentSequence="15"><text x="450" y="292" text-anchor="middle" style="font-weight:bold;font-size:10px;stroke:none; fill:#333399"><tspan dy="14" x="450">Paralelo</tspan></text></g><g sequence="17"><rect x="600" y="210" width="106" height="56" ry="5" rx="5" style="fill:url(#linearGradientF8FBFEEDF5FCDEEDFAD4E7F8E2E5E9_962468318);" stroke="191970" /></g><g componentSequence="17"><text x="653" y="227" text-anchor="middle" style="font-weight:bold;font-size:10px;stroke:none; fill:#333399"><tspan dy="14" x="653">Suprimentos</tspan></text></g><g sequence="19"><rect x="600" y="280" width="106" height="56" ry="5" rx="5" style="fill:url(#linearGradientF8FBFEEDF5FCDEEDFAD4E7F8E2E5E9_1056039581);" stroke="191970" /></g><g componentSequence="19"><text x="653" y="297" text-anchor="middle" style="font-weight:bold;font-size:10px;stroke:none; fill:#333399"><tspan dy="14" x="653">Segurança</tspan></text></g><g sequence="21"><polygon points=" 850 250 880 220 910 250 880 280 850 250" style="fill:url(#linearGradientFAFBFCFFFFCC_1106349031);" stroke="000000" /></g><path style="fill:none; stroke-width:6; stroke:#000000;" d="M870.0 250.0 L890.0 250.0" /><path style="fill:none; stroke-width:6; stroke:#000000;" d="M880.0 240.0 L880.0 260.0" /><g componentSequence="21"><text x="880" y="283" text-anchor="middle" style="font-weight:bold;font-size:10px;stroke:none; fill:#333399"><tspan dy="14" x="880">Junção</tspan></text></g><g sequence="24"><polygon points=" 1010 260 1040 230 1070 260 1040 290 1010 260" style="fill:url(#linearGradientFAFBFCFFFFCC_1872482648);" stroke="000000" /></g><g componentSequence="24"><text x="1040" y="293" text-anchor="middle" style="font-weight:bold;font-size:10px;stroke:none; fill:#333399"><tspan dy="14" x="1040">Opção</tspan></text></g><g sequence="30"><polygon points=" 300 520 330 490 360 520 330 550 300 520" style="fill:url(#linearGradientFAFBFCFFFFCC_641906076);" stroke="000000" /></g><g componentSequence="30"><text x="330" y="553" text-anchor="middle" style="font-weight:bold;font-size:10px;stroke:none; fill:#333399"><tspan dy="14" x="330">Opção</tspan></text></g><g sequence="32"><rect x="280" y="633" width="106" height="56" ry="5" rx="5" style="fill:url(#linearGradientF8FBFEEDF5FCDEEDFAD4E7F8E2E5E9_395726531);" stroke="191970" /></g><g componentSequence="32"><text x="333" y="650" text-anchor="middle" style="font-weight:bold;font-size:10px;stroke:none; fill:#333399"><tspan dy="14" x="333">Controladoria</tspan></text></g><g sequence="34"><polygon points=" 510 647 540 617 570 647 540 677 510 647" style="fill:url(#linearGradientFAFBFCFFFFCC_1526022501);" stroke="000000" /></g><g componentSequence="34"><text x="540" y="680" text-anchor="middle" style="font-weight:bold;font-size:10px;stroke:none; fill:#333399"><tspan dy="14" x="540">Opção</tspan></text></g><g sequence="37"><ellipse cx="637" cy="660" rx="17" ry="17" stroke-width="3" style="fill:url(#linearGradientFF6666FF9696FFB6B6_1809140338);" stroke="993333" /></g><g sequence="43"><rect x="490" y="786" width="106" height="56" ry="5" rx="5" style="fill:url(#linearGradientF8FBFEEDF5FCDEEDFAD4E7F8E2E5E9_1485372609);" stroke="191970" /></g><g componentSequence="43"><text x="543" y="803" text-anchor="middle" style="font-weight:bold;font-size:10px;stroke:none; fill:#333399"><tspan dy="14" x="543">Engenheiro</tspan></text></g><g sequence="46"><polygon points=" 660 800 690 770 720 800 690 830 660 800" style="fill:url(#linearGradientFAFBFCFFFFCC_2102219077);" stroke="000000" /></g><g componentSequence="46"><text x="690" y="833" text-anchor="middle" style="font-weight:bold;font-size:10px;stroke:none; fill:#333399"><tspan dy="14" x="690">Opção</tspan></text></g><g sequence="48"><rect x="800" y="786" width="106" height="56" ry="5" rx="5" style="fill:url(#linearGradientF8FBFEEDF5FCDEEDFAD4E7F8E2E5E9_222550496);" stroke="191970" /></g><g componentSequence="48"><text x="853" y="803" text-anchor="middle" style="font-weight:bold;font-size:10px;stroke:none; fill:#333399"><tspan dy="14" x="853">Coord. Obras</tspan></text></g><g sequence="53"><rect x="1120" y="786" width="106" height="56" ry="5" rx="5" style="fill:url(#linearGradientF8FBFEEDF5FCDEEDFAD4E7F8E2E5E9_1275364576);" stroke="191970" /></g><g componentSequence="53"><text x="1173" y="803" text-anchor="middle" style="font-weight:bold;font-size:10px;stroke:none; fill:#333399"><tspan dy="14" x="1173">Diretoria</tspan></text></g><g sequence="55"><polygon points=" 1310 800 1340 770 1370 800 1340 830 1310 800" style="fill:url(#linearGradientFAFBFCFFFFCC_1408567125);" stroke="000000" /></g><g componentSequence="55"><text x="1340" y="833" text-anchor="middle" style="font-weight:bold;font-size:10px;stroke:none; fill:#333399"><tspan dy="14" x="1340">Opção</tspan></text></g><g sequence="58"><ellipse cx="1537" cy="813" rx="17" ry="17" stroke-width="1" style="fill:url(#linearGradientFFFF66FFFF96FFFFB6_1151709975);" stroke="999900" /></g><g sequence="58"><rect x="1527" y="803" width="21" height="21" ry="0" rx="0" style="stroke:#000000; fill:none" /></g><g sequence="58"><path style="fill:none; stroke-width:1; stroke:#000000;" d="M1529.0 806.0 L1544.0 806.0" /></g><g sequence="58"><path style="fill:none; stroke-width:1; stroke:#000000;" d="M1529.0 811.0 L1544.0 811.0" /></g><g sequence="58"><path style="fill:none; stroke-width:1; stroke:#000000;" d="M1529.0 816.0 L1544.0 816.0" /></g><g sequence="58"><path style="fill:none; stroke-width:1; stroke:#000000;" d="M1529.0 821.0 L1544.0 821.0" /></g><g sequence="60"><polygon points=" 1510 930 1540 900 1570 930 1540 960 1510 930" style="fill:url(#linearGradientFAFBFCFFFFCC_1463484090);" stroke="000000" /></g><g componentSequence="60"><text x="1540" y="963" text-anchor="middle" style="font-weight:bold;font-size:10px;stroke:none; fill:#333399"><tspan dy="14" x="1540">Opção</tspan></text></g><g sequence="62"><ellipse cx="1697" cy="947" rx="17" ry="17" stroke-width="3" style="fill:url(#linearGradientFF6666FF9696FFB6B6_1072775993);" stroke="993333" /></g><g sequence="64"><rect x="1280" y="66" width="106" height="56" ry="5" rx="5" style="fill:url(#linearGradientF8FBFEEDF5FCDEEDFAD4E7F8E2E5E9_1153770557);" stroke="191970" /></g><g componentSequence="64"><text x="1333" y="83" text-anchor="middle" style="font-weight:bold;font-size:10px;stroke:none; fill:#333399"><tspan dy="14" x="1333">Adm. Obra</tspan></text></g><g sequence="66"><rect x="1490" y="1046" width="106" height="70" ry="5" rx="5" style="fill:url(#linearGradientF8FBFEEDF5FCDEEDFAD4E7F8E2E5E9_756091577);" stroke="191970" /></g><g componentSequence="66"><text x="1543" y="1061" text-anchor="middle" style="font-weight:bold;font-size:10px;stroke:none; fill:#333399"><tspan dy="14" x="1543">Assinatura</tspan><tspan dy="14" x="1543">Eletrônica</tspan></text></g><g sequence="68"><polygon points=" 1670 1070 1700 1040 1730 1070 1700 1100 1670 1070" style="fill:url(#linearGradientFAFBFCFFFFCC_769584783);" stroke="000000" /></g><g componentSequence="68"><text x="1700" y="1103" text-anchor="middle" style="font-weight:bold;font-size:10px;stroke:none; fill:#333399"><tspan dy="14" x="1700">Opção</tspan></text></g><g sequence="72"><rect x="1580" y="615" width="106" height="84" ry="5" rx="5" style="fill:url(#linearGradientF8FBFEEDF5FCDEEDFAD4E7F8E2E5E9_411273350);" stroke="191970" /></g><g componentSequence="72"><text x="1633" y="630" text-anchor="middle" style="font-weight:bold;font-size:10px;stroke:none; fill:#333399"><tspan dy="14" x="1633">Controladoria</tspan><tspan dy="14" x="1633">Recolhe</tspan><tspan dy="14" x="1633">Assinaturas</tspan></text></g><g sequence="74"><rect x="1410" y="615" width="106" height="84" ry="5" rx="5" style="fill:url(#linearGradientF8FBFEEDF5FCDEEDFAD4E7F8E2E5E9_1972024167);" stroke="191970" /></g><g componentSequence="74"><text x="1463" y="630" text-anchor="middle" style="font-weight:bold;font-size:10px;stroke:none; fill:#333399"><tspan dy="14" x="1463">Controladoria</tspan><tspan dy="14" x="1463">Aguarda</tspan><tspan dy="14" x="1463">Recebimento</tspan></text></g><g sequence="76"><rect x="1580" y="70" width="106" height="70" ry="5" rx="5" style="fill:url(#linearGradientF8FBFEEDF5FCDEEDFAD4E7F8E2E5E9_1349204909);" stroke="191970" /></g><g componentSequence="76"><text x="1633" y="85" text-anchor="middle" style="font-weight:bold;font-size:10px;stroke:none; fill:#333399"><tspan dy="14" x="1633">Obra Recebe</tspan><tspan dy="14" x="1633">Vias Originais</tspan></text></g><g sequence="83"><ellipse cx="1757" cy="117" rx="17" ry="17" stroke-width="3" style="fill:url(#linearGradientFF6666FF9696FFB6B6_169549241);" stroke="993333" /></g><g sequence="88"><polygon points=" 990 800 1020 770 1050 800 1020 830 990 800" style="fill:url(#linearGradientFAFBFCFFFFCC_240673732);" stroke="000000" /></g><g componentSequence="88"><text x="1020" y="833" text-anchor="middle" style="font-weight:bold;font-size:10px;stroke:none; fill:#333399"><tspan dy="14" x="1020">Opção</tspan></text></g><g componentSequence="12"><text x="329" y="75" style="font-size:10px;font-weight:none;stroke:none; fill:#333399" text-anchor="left" /></g><g componentSequence="44"><text x="201" y="520" style="font-size:10px;font-weight:none;stroke:none; fill:#333399" text-anchor="left" /></g><g componentSequence="31"><text x="336" y="473" style="font-size:10px;font-weight:none;stroke:none; fill:#333399" text-anchor="left" /></g><g componentSequence="13"><text x="331" y="292" style="font-size:10px;font-weight:none;stroke:none; fill:#333399" text-anchor="left" /></g><g componentSequence="16"><text x="335" y="273" style="font-size:10px;font-weight:none;stroke:none; fill:#333399" text-anchor="left" /></g><g componentSequence="18"><text x="550" y="257" style="font-size:10px;font-weight:none;stroke:none; fill:#333399" text-anchor="left" /></g><g componentSequence="20"><text x="550" y="288" style="font-size:10px;font-weight:none;stroke:none; fill:#333399" text-anchor="left" /></g><g componentSequence="22"><text x="788" y="252" style="font-size:10px;font-weight:none;stroke:none; fill:#333399" text-anchor="left" /></g><g componentSequence="23"><text x="788" y="283" style="font-size:10px;font-weight:none;stroke:none; fill:#333399" text-anchor="left" /></g><g componentSequence="25"><text x="970" y="268" style="font-size:10px;font-weight:none;stroke:none; fill:#333399" text-anchor="left" /></g><g componentSequence="27"><text x="793" y="37" style="font-size:10px;font-weight:none;stroke:none; fill:#333399" text-anchor="left" /></g><g componentSequence="28"><text x="774" y="429" style="font-size:10px;font-weight:none;stroke:none; fill:#333399" text-anchor="left" /></g><g componentSequence="33"><text x="342" y="605" style="font-size:10px;font-weight:none;stroke:none; fill:#333399" text-anchor="left" /></g><g componentSequence="39"><text x="200" y="285" style="font-size:10px;font-weight:none;stroke:none; fill:#333399" text-anchor="left" /></g><g componentSequence="35"><text x="458" y="661" style="font-size:10px;font-weight:none;stroke:none; fill:#333399" text-anchor="left" /></g><g componentSequence="36"><text x="550" y="440" style="font-size:10px;font-weight:none;stroke:none; fill:#333399" text-anchor="left" /></g><g componentSequence="38"><text x="605" y="660" style="font-size:10px;font-weight:none;stroke:none; fill:#333399" text-anchor="left" /></g><g componentSequence="45"><text x="552" y="745" style="font-size:10px;font-weight:none;stroke:none; fill:#333399" text-anchor="left" /></g><g componentSequence="47"><text x="638" y="814" style="font-size:10px;font-weight:none;stroke:none; fill:#333399" text-anchor="left" /></g><g componentSequence="49"><text x="770" y="814" style="font-size:10px;font-weight:none;stroke:none; fill:#333399" text-anchor="left" /></g><g componentSequence="78"><text x="200" y="692" style="font-size:10px;font-weight:none;stroke:none; fill:#333399" text-anchor="left" /></g><g componentSequence="79"><text x="437" y="909" style="font-size:10px;font-weight:none;stroke:none; fill:#333399" text-anchor="left" /></g><g componentSequence="80"><text x="1024" y="691" style="font-size:10px;font-weight:none;stroke:none; fill:#333399" text-anchor="left" /></g><g componentSequence="81"><text x="949" y="691" style="font-size:10px;font-weight:none;stroke:none; fill:#333399" text-anchor="left" /></g><g componentSequence="56"><text x="1278" y="814" style="font-size:10px;font-weight:none;stroke:none; fill:#333399" text-anchor="left" /></g><g componentSequence="59"><text x="1455" y="813" style="font-size:10px;font-weight:none;stroke:none; fill:#333399" text-anchor="left" /></g><g componentSequence="65"><text x="1346" y="446" style="font-size:10px;font-weight:none;stroke:none; fill:#333399" text-anchor="left" /></g><g componentSequence="82"><text x="761" y="908" style="font-size:10px;font-weight:none;stroke:none; fill:#333399" text-anchor="left" /></g><g componentSequence="85"><text x="942" y="908" style="font-size:10px;font-weight:none;stroke:none; fill:#333399" text-anchor="left" /></g><g componentSequence="86"><text x="311" y="908" style="font-size:10px;font-weight:none;stroke:none; fill:#333399" text-anchor="left" /></g><g componentSequence="61"><text x="1548" y="865" style="font-size:10px;font-weight:none;stroke:none; fill:#333399" text-anchor="left" /></g><g componentSequence="63"><text x="1635" y="946" style="font-size:10px;font-weight:none;stroke:none; fill:#333399" text-anchor="left" /></g><g componentSequence="67"><text x="1552" y="1017" style="font-size:10px;font-weight:none;stroke:none; fill:#333399" text-anchor="left" /></g><g componentSequence="73"><text x="1472" y="316" style="font-size:10px;font-weight:none;stroke:none; fill:#333399" text-anchor="left" /></g><g componentSequence="69"><text x="1643" y="1083" style="font-size:10px;font-weight:none;stroke:none; fill:#333399" text-anchor="left" /></g><g componentSequence="70"><text x="1708" y="1002" style="font-size:10px;font-weight:none;stroke:none; fill:#333399" text-anchor="left" /></g><g componentSequence="71"><text x="807" y="1159" style="font-size:10px;font-weight:none;stroke:none; fill:#333399" text-anchor="left" /></g><g componentSequence="77"><text x="1643" y="377" style="font-size:10px;font-weight:none;stroke:none; fill:#333399" text-anchor="left" /></g><g componentSequence="75"><text x="1558" y="657" style="font-size:10px;font-weight:none;stroke:none; fill:#333399" text-anchor="left" /></g><g componentSequence="84"><text x="1723" y="113" style="font-size:10px;font-weight:none;stroke:none; fill:#333399" text-anchor="left" /></g><g componentSequence="87"><text x="700" y="442" style="font-size:10px;font-weight:none;stroke:none; fill:#333399" text-anchor="left" /></g><g componentSequence="89"><text x="958" y="814" style="font-size:10px;font-weight:none;stroke:none; fill:#333399" text-anchor="left" /></g><g componentSequence="90"><text x="1095" y="814" style="font-size:10px;font-weight:none;stroke:none; fill:#333399" text-anchor="left" /></g><g componentSequence="91"><text x="201" y="530" style="font-size:10px;font-weight:none;stroke:none; fill:#333399" text-anchor="left" /></g><g componentSequence="92"><text x="1037" y="429" style="font-size:10px;font-weight:none;stroke:none; fill:#333399" text-anchor="left" /></g><g componentSequence="93"><text x="601" y="909" style="font-size:10px;font-weight:none;stroke:none; fill:#333399" text-anchor="left" /></g><g componentSequence="94"><text x="360" y="909" style="font-size:10px;font-weight:none;stroke:none; fill:#333399" text-anchor="left" /></g><g componentSequence="95"><text x="201" y="855" style="font-size:10px;font-weight:none;stroke:none; fill:#333399" text-anchor="left" /></g><path style="fill:none; stroke:#000000;stroke-width:1" d="M317.0 54.0 L317.0 94.0" /><polygon style="fill:#000000; stroke:#000000;" points=" 322 84 317 94 312 84 317 86" /><path style="fill:none; stroke:#000000;stroke-width:1" d="M300.0 37.0 L191.0 36.0 L191.0 814.0 L488.0 813.0" /><polygon style="fill:#000000; stroke:#000000;" points=" 478 808 488 813 478 818 480 813" /><path style="fill:none; stroke:#000000;stroke-width:1" d="M1038.0 228.0 L1039.0 37.0 L334.0 37.0" /><polygon style="fill:#000000; stroke:#000000;" points=" 344 42 334 37 344 32 342 37" /><path style="fill:none; stroke:#000000;stroke-width:1" d="M298.0 533.0 L190.0 532.0 L191.0 37.0 L300.0 37.0" /><polygon style="fill:#000000; stroke:#000000;" points=" 290 32 300 37 290 42 292 37" /><path style="fill:none; stroke:#000000;stroke-width:1" d="M689.0 858.0 L688.0 908.0 L190.0 908.0 L191.0 36.0 L300.0 37.0" /><polygon style="fill:#000000; stroke:#000000;" points=" 290 32 300 37 290 42 292 37" /><path style="fill:none; stroke:#000000;stroke-width:1" d="M1338.0 858.0 L1338.0 908.0 L192.0 908.0 L192.0 36.0 L300.0 37.0" /><polygon style="fill:#000000; stroke:#000000;" points=" 290 32 300 37 290 42 292 37" /><path style="fill:none; stroke:#000000;stroke-width:1" d="M540.0 705.0 L540.0 744.0 L191.0 744.0 L191.0 36.0 L300.0 37.0" /><polygon style="fill:#000000; stroke:#000000;" points=" 290 32 300 37 290 42 292 37" /><path style="fill:none; stroke:#000000;stroke-width:1" d="M1020.0 858.0 L1020.0 906.0 L191.0 906.0 L191.0 36.0 L300.0 37.0" /><polygon style="fill:#000000; stroke:#000000;" points=" 290 32 300 37 290 42 292 37" /><path style="fill:none; stroke:#000000;stroke-width:1" d="M324.0 456.0 L326.0 488.0" /><polygon style="fill:#000000; stroke:#000000;" points=" 330 478 326 488 320 478 326 480" /><path style="fill:none; stroke:#000000;stroke-width:1" d="M320.0 184.0 L321.0 398.0" /><polygon style="fill:#000000; stroke:#000000;" points=" 326 388 321 398 316 388 321 390" /><path style="fill:none; stroke:#000000;stroke-width:1" d="M1040.0 318.0 L1040.0 430.0 L376.0 428.0" /><polygon style="fill:#000000; stroke:#000000;" points=" 386 433 376 428 386 423 384 428" /><path style="fill:none; stroke:#000000;stroke-width:1" d="M540.0 616.0 L540.0 429.0 L376.0 428.0" /><polygon style="fill:#000000; stroke:#000000;" points=" 386 433 376 428 386 423 384 428" /><path style="fill:none; stroke:#000000;stroke-width:1" d="M689.0 768.0 L690.0 429.0 L376.0 428.0" /><polygon style="fill:#000000; stroke:#000000;" points=" 386 433 376 428 386 423 384 428" /><path style="fill:none; stroke:#000000;stroke-width:1" d="M1338.0 768.0 L1338.0 430.0 L376.0 428.0" /><polygon style="fill:#000000; stroke:#000000;" points=" 386 433 376 428 386 423 384 428" /><path style="fill:none; stroke:#000000;stroke-width:1" d="M1020.0 858.0 L1020.0 909.0 L191.0 909.0 L191.0 426.0 L268.0 426.0" /><polygon style="fill:#000000; stroke:#000000;" points=" 258 421 268 426 258 431 260 426" /><path style="fill:none; stroke:#000000;stroke-width:1" d="M320.0 184.0 L320.0 273.0 L418.0 272.0" /><polygon style="fill:#000000; stroke:#000000;" points=" 408 267 418 272 408 277 410 272" /><path style="fill:none; stroke:#000000;stroke-width:1" d="M480.0 266.0 L598.0 246.0" /><polygon style="fill:#000000; stroke:#000000;" points=" 587 243 598 246 589 253 590 247" /><path style="fill:none; stroke:#000000;stroke-width:1" d="M480.0 278.0 L598.0 297.0" /><polygon style="fill:#000000; stroke:#000000;" points=" 589 290 598 297 587 300 590 296" /><path style="fill:none; stroke:#000000;stroke-width:1" d="M706.0 244.0 L848.0 260.0" /><polygon style="fill:#000000; stroke:#000000;" points=" 839 254 848 260 838 264 840 259" /><path style="fill:none; stroke:#000000;stroke-width:1" d="M706.0 297.0 L848.0 269.0" /><polygon style="fill:#000000; stroke:#000000;" points=" 837 266 848 269 839 276 840 271" /><path style="fill:none; stroke:#000000;stroke-width:1" d="M910.0 265.0 L1008.0 272.0" /><polygon style="fill:#000000; stroke:#000000;" points=" 998 266 1008 272 998 276 1000 271" /><path style="fill:none; stroke:#000000;stroke-width:1" d="M330.0 578.0 L332.0 632.0" /><polygon style="fill:#000000; stroke:#000000;" points=" 337 622 332 632 327 622 332 624" /><path style="fill:none; stroke:#000000;stroke-width:1" d="M386.0 660.0 L508.0 660.0" /><polygon style="fill:#000000; stroke:#000000;" points=" 498 655 508 660 498 665 500 660" /><path style="fill:none; stroke:#000000;stroke-width:1" d="M689.0 858.0 L690.0 909.0 L333.0 909.0 L332.0 689.0" /><polygon style="fill:#000000; stroke:#000000;" points=" 327 699 332 689 337 699 332 697" /><path style="fill:none; stroke:#000000;stroke-width:1" d="M1338.0 858.0 L1339.0 908.0 L332.0 908.0 L332.0 689.0" /><polygon style="fill:#000000; stroke:#000000;" points=" 327 699 332 689 337 699 332 697" /><path style="fill:none; stroke:#000000;stroke-width:1" d="M1700.0 1128.0 L1700.0 1159.0 L333.0 1159.0 L332.0 689.0" /><polygon style="fill:#000000; stroke:#000000;" points=" 327 699 332 689 337 699 332 697" /><path style="fill:none; stroke:#000000;stroke-width:1" d="M1018.0 858.0 L1019.0 909.0 L332.0 909.0 L332.0 689.0" /><polygon style="fill:#000000; stroke:#000000;" points=" 327 699 332 689 337 699 332 697" /><path style="fill:none; stroke:#000000;stroke-width:1" d="M570.0 660.0 L618.0 660.0" /><polygon style="fill:#000000; stroke:#000000;" points=" 608 655 618 660 608 665 610 660" /><path style="fill:none; stroke:#000000;stroke-width:1" d="M540.0 705.0 L541.0 784.0" /><polygon style="fill:#000000; stroke:#000000;" points=" 546 774 541 784 536 774 541 776" /><path style="fill:none; stroke:#000000;stroke-width:1" d="M596.0 813.0 L658.0 813.0" /><polygon style="fill:#000000; stroke:#000000;" points=" 648 808 658 813 648 818 650 813" /><path style="fill:none; stroke:#000000;stroke-width:1" d="M1338.0 858.0 L1338.0 908.0 L542.0 908.0 L541.0 842.0" /><polygon style="fill:#000000; stroke:#000000;" points=" 536 852 541 842 546 852 541 850" /><path style="fill:none; stroke:#000000;stroke-width:1" d="M720.0 813.0 L798.0 813.0" /><polygon style="fill:#000000; stroke:#000000;" points=" 788 808 798 813 788 818 790 813" /><path style="fill:none; stroke:#000000;stroke-width:1" d="M689.0 768.0 L689.0 691.0 L1339.0 691.0 L1338.0 768.0" /><polygon style="fill:#000000; stroke:#000000;" points=" 1343 758 1338 768 1333 758 1338 760" /><path style="fill:none; stroke:#000000;stroke-width:1" d="M689.0 768.0 L689.0 691.0 L1172.0 691.0 L1172.0 784.0" /><polygon style="fill:#000000; stroke:#000000;" points=" 1177 774 1172 784 1167 774 1172 776" /><path style="fill:none; stroke:#000000;stroke-width:1" d="M906.0 813.0 L988.0 813.0" /><polygon style="fill:#000000; stroke:#000000;" points=" 978 808 988 813 978 818 980 813" /><path style="fill:none; stroke:#000000;stroke-width:1" d="M1226.0 813.0 L1308.0 813.0" /><polygon style="fill:#000000; stroke:#000000;" points=" 1298 808 1308 813 1298 818 1300 813" /><path style="fill:none; stroke:#000000;stroke-width:1" d="M1050.0 813.0 L1118.0 813.0" /><polygon style="fill:#000000; stroke:#000000;" points=" 1108 808 1118 813 1108 818 1110 813" /><path style="fill:none; stroke:#000000;stroke-width:1" d="M1370.0 813.0 L1518.0 813.0" /><polygon style="fill:#000000; stroke:#000000;" points=" 1508 808 1518 813 1508 818 1510 813" /><path style="fill:none; stroke:#000000;stroke-width:1" d="M1338.0 768.0 L1333.0 122.0" /><polygon style="fill:#000000; stroke:#000000;" points=" 1328 132 1333 122 1338 132 1333 130" /><path style="fill:none; stroke:#000000;stroke-width:1" d="M1537.0 830.0 L1538.0 898.0" /><polygon style="fill:#000000; stroke:#000000;" points=" 1543 888 1538 898 1533 888 1538 890" /><path style="fill:none; stroke:#000000;stroke-width:1" d="M1570.0 944.0 L1680.0 946.0" /><polygon style="fill:#000000; stroke:#000000;" points=" 1670 941 1680 946 1670 951 1672 946" /><path style="fill:none; stroke:#000000;stroke-width:1" d="M1540.0 988.0 L1541.0 1044.0" /><polygon style="fill:#000000; stroke:#000000;" points=" 1546 1034 1541 1044 1536 1034 1541 1036" /><path style="fill:none; stroke:#000000;stroke-width:1" d="M1698.0 1038.0 L1697.0 964.0" /><polygon style="fill:#000000; stroke:#000000;" points=" 1692 974 1697 964 1702 974 1697 972" /><path style="fill:none; stroke:#000000;stroke-width:1" d="M1386.0 93.0 L1462.0 94.0 L1461.0 613.0" /><polygon style="fill:#000000; stroke:#000000;" points=" 1466 603 1461 613 1456 603 1461 605" /><path style="fill:none; stroke:#000000;stroke-width:1" d="M1596.0 1081.0 L1668.0 1082.0" /><polygon style="fill:#000000; stroke:#000000;" points=" 1658 1077 1668 1082 1658 1087 1660 1082" /><path style="fill:none; stroke:#000000;stroke-width:1" d="M1632.0 613.0 L1632.0 140.0" /><polygon style="fill:#000000; stroke:#000000;" points=" 1627 150 1632 140 1637 150 1632 148" /><path style="fill:none; stroke:#000000;stroke-width:1" d="M1516.0 656.0 L1578.0 656.0" /><polygon style="fill:#000000; stroke:#000000;" points=" 1568 651 1578 656 1568 661 1570 656" /><path style="fill:none; stroke:#000000;stroke-width:1" d="M1686.0 109.0 L1740.0 116.0" /><polygon style="fill:#000000; stroke:#000000;" points=" 1731 110 1740 116 1729 120 1732 115" /><defs><linearGradient xmlns:xlink="http://www.w3.org/1999/xlink" xlink:href="#linearGradient66FF6696FF96B6FFB6" id="linearGradient66FF6696FF96B6FFB6_1078903381" x1="0" y1="20.0" x2="0" y2="55.0" gradientUnits="userSpaceOnUse" xlink:type="simple" xlink:actuate="onLoad" xlink:show="other" /><linearGradient id="linearGradient66FF6696FF96B6FFB6"><stop style="stop-color:#66FF66;stop-opacity:1;" offset="0.0" id="stop66FF66" /><stop style="stop-color:#96FF96;stop-opacity:1;" offset="0.5" id="stop96FF96" /><stop style="stop-color:#B6FFB6;stop-opacity:1;" offset="1.0" id="stopB6FFB6" /></linearGradient><linearGradient xmlns:xlink="http://www.w3.org/1999/xlink" xlink:href="#linearGradientF8FBFEEDF5FCDEEDFAD4E7F8E2E5E9" id="linearGradientF8FBFEEDF5FCDEEDFAD4E7F8E2E5E9_1317610540" x1="0" y1="400.0" x2="0" y2="506.0" gradientUnits="userSpaceOnUse" xlink:type="simple" xlink:actuate="onLoad" xlink:show="other" /><linearGradient id="linearGradientF8FBFEEDF5FCDEEDFAD4E7F8E2E5E9"><stop style="stop-color:#F8FBFE;stop-opacity:1;" offset="0.0" id="stopF8FBFE" /><stop style="stop-color:#EDF5FC;stop-opacity:1;" offset="0.25" id="stopEDF5FC" /><stop style="stop-color:#DEEDFA;stop-opacity:1;" offset="0.5" id="stopDEEDFA" /><stop style="stop-color:#D4E7F8;stop-opacity:1;" offset="0.75" id="stopD4E7F8" /><stop style="stop-color:#E2E5E9;stop-opacity:1;" offset="1.0" id="stopE2E5E9" /></linearGradient><linearGradient xmlns:xlink="http://www.w3.org/1999/xlink" xlink:href="#linearGradientFAFBFCFFFFCC" id="linearGradientFAFBFCFFFFCC_1253484837" x1="0" y1="96.0" x2="0" y2="156.0" gradientUnits="userSpaceOnUse" xlink:type="simple" xlink:actuate="onLoad" xlink:show="other" /><linearGradient id="linearGradientFAFBFCFFFFCC"><stop style="stop-color:#FAFBFC;stop-opacity:1;" offset="0.0" id="stopFAFBFC" /><stop style="stop-color:#FFFFCC;stop-opacity:1;" offset="1.0" id="stopFFFFCC" /></linearGradient><linearGradient xmlns:xlink="http://www.w3.org/1999/xlink" xlink:href="#linearGradientFAFBFCFFFFCC" id="linearGradientFAFBFCFFFFCC_263466519" x1="0" y1="229.0" x2="0" y2="289.0" gradientUnits="userSpaceOnUse" xlink:type="simple" xlink:actuate="onLoad" xlink:show="other" /><linearGradient xmlns:xlink="http://www.w3.org/1999/xlink" xlink:href="#linearGradientF8FBFEEDF5FCDEEDFAD4E7F8E2E5E9" id="linearGradientF8FBFEEDF5FCDEEDFAD4E7F8E2E5E9_962468318" x1="0" y1="210.0" x2="0" y2="316.0" gradientUnits="userSpaceOnUse" xlink:type="simple" xlink:actuate="onLoad" xlink:show="other" /><linearGradient xmlns:xlink="http://www.w3.org/1999/xlink" xlink:href="#linearGradientF8FBFEEDF5FCDEEDFAD4E7F8E2E5E9" id="linearGradientF8FBFEEDF5FCDEEDFAD4E7F8E2E5E9_1056039581" x1="0" y1="280.0" x2="0" y2="386.0" gradientUnits="userSpaceOnUse" xlink:type="simple" xlink:actuate="onLoad" xlink:show="other" /><linearGradient xmlns:xlink="http://www.w3.org/1999/xlink" xlink:href="#linearGradientFAFBFCFFFFCC" id="linearGradientFAFBFCFFFFCC_1106349031" x1="0" y1="220.0" x2="0" y2="280.0" gradientUnits="userSpaceOnUse" xlink:type="simple" xlink:actuate="onLoad" xlink:show="other" /><linearGradient xmlns:xlink="http://www.w3.org/1999/xlink" xlink:href="#linearGradientFAFBFCFFFFCC" id="linearGradientFAFBFCFFFFCC_1872482648" x1="0" y1="230.0" x2="0" y2="290.0" gradientUnits="userSpaceOnUse" xlink:type="simple" xlink:actuate="onLoad" xlink:show="other" /><linearGradient xmlns:xlink="http://www.w3.org/1999/xlink" xlink:href="#linearGradientFAFBFCFFFFCC" id="linearGradientFAFBFCFFFFCC_641906076" x1="0" y1="490.0" x2="0" y2="550.0" gradientUnits="userSpaceOnUse" xlink:type="simple" xlink:actuate="onLoad" xlink:show="other" /><linearGradient xmlns:xlink="http://www.w3.org/1999/xlink" xlink:href="#linearGradientF8FBFEEDF5FCDEEDFAD4E7F8E2E5E9" id="linearGradientF8FBFEEDF5FCDEEDFAD4E7F8E2E5E9_395726531" x1="0" y1="633.0" x2="0" y2="739.0" gradientUnits="userSpaceOnUse" xlink:type="simple" xlink:actuate="onLoad" xlink:show="other" /><linearGradient xmlns:xlink="http://www.w3.org/1999/xlink" xlink:href="#linearGradientFAFBFCFFFFCC" id="linearGradientFAFBFCFFFFCC_1526022501" x1="0" y1="617.0" x2="0" y2="677.0" gradientUnits="userSpaceOnUse" xlink:type="simple" xlink:actuate="onLoad" xlink:show="other" /><linearGradient xmlns:xlink="http://www.w3.org/1999/xlink" xlink:href="#linearGradientFF6666FF9696FFB6B6" id="linearGradientFF6666FF9696FFB6B6_1809140338" x1="0" y1="643.0" x2="0" y2="678.0" gradientUnits="userSpaceOnUse" xlink:type="simple" xlink:actuate="onLoad" xlink:show="other" /><linearGradient id="linearGradientFF6666FF9696FFB6B6"><stop style="stop-color:#FF6666;stop-opacity:1;" offset="0.0" id="stopFF6666" /><stop style="stop-color:#FF9696;stop-opacity:1;" offset="0.5" id="stopFF9696" /><stop style="stop-color:#FFB6B6;stop-opacity:1;" offset="1.0" id="stopFFB6B6" /></linearGradient><linearGradient xmlns:xlink="http://www.w3.org/1999/xlink" xlink:href="#linearGradientF8FBFEEDF5FCDEEDFAD4E7F8E2E5E9" id="linearGradientF8FBFEEDF5FCDEEDFAD4E7F8E2E5E9_1485372609" x1="0" y1="786.0" x2="0" y2="892.0" gradientUnits="userSpaceOnUse" xlink:type="simple" xlink:actuate="onLoad" xlink:show="other" /><linearGradient xmlns:xlink="http://www.w3.org/1999/xlink" xlink:href="#linearGradientFAFBFCFFFFCC" id="linearGradientFAFBFCFFFFCC_2102219077" x1="0" y1="770.0" x2="0" y2="830.0" gradientUnits="userSpaceOnUse" xlink:type="simple" xlink:actuate="onLoad" xlink:show="other" /><linearGradient xmlns:xlink="http://www.w3.org/1999/xlink" xlink:href="#linearGradientF8FBFEEDF5FCDEEDFAD4E7F8E2E5E9" id="linearGradientF8FBFEEDF5FCDEEDFAD4E7F8E2E5E9_222550496" x1="0" y1="786.0" x2="0" y2="892.0" gradientUnits="userSpaceOnUse" xlink:type="simple" xlink:actuate="onLoad" xlink:show="other" /><linearGradient xmlns:xlink="http://www.w3.org/1999/xlink" xlink:href="#linearGradientF8FBFEEDF5FCDEEDFAD4E7F8E2E5E9" id="linearGradientF8FBFEEDF5FCDEEDFAD4E7F8E2E5E9_1275364576" x1="0" y1="786.0" x2="0" y2="892.0" gradientUnits="userSpaceOnUse" xlink:type="simple" xlink:actuate="onLoad" xlink:show="other" /><linearGradient xmlns:xlink="http://www.w3.org/1999/xlink" xlink:href="#linearGradientFAFBFCFFFFCC" id="linearGradientFAFBFCFFFFCC_1408567125" x1="0" y1="770.0" x2="0" y2="830.0" gradientUnits="userSpaceOnUse" xlink:type="simple" xlink:actuate="onLoad" xlink:show="other" /><linearGradient xmlns:xlink="http://www.w3.org/1999/xlink" xlink:href="#linearGradientFFFF66FFFF96FFFFB6" id="linearGradientFFFF66FFFF96FFFFB6_1151709975" x1="0" y1="796.0" x2="0" y2="831.0" gradientUnits="userSpaceOnUse" xlink:type="simple" xlink:actuate="onLoad" xlink:show="other" /><linearGradient id="linearGradientFFFF66FFFF96FFFFB6"><stop style="stop-color:#FFFF66;stop-opacity:1;" offset="0.0" id="stopFFFF66" /><stop style="stop-color:#FFFF96;stop-opacity:1;" offset="0.5" id="stopFFFF96" /><stop style="stop-color:#FFFFB6;stop-opacity:1;" offset="1.0" id="stopFFFFB6" /></linearGradient><linearGradient xmlns:xlink="http://www.w3.org/1999/xlink" xlink:href="#linearGradientFAFBFCFFFFCC" id="linearGradientFAFBFCFFFFCC_1463484090" x1="0" y1="900.0" x2="0" y2="960.0" gradientUnits="userSpaceOnUse" xlink:type="simple" xlink:actuate="onLoad" xlink:show="other" /><linearGradient xmlns:xlink="http://www.w3.org/1999/xlink" xlink:href="#linearGradientFF6666FF9696FFB6B6" id="linearGradientFF6666FF9696FFB6B6_1072775993" x1="0" y1="930.0" x2="0" y2="965.0" gradientUnits="userSpaceOnUse" xlink:type="simple" xlink:actuate="onLoad" xlink:show="other" /><linearGradient xmlns:xlink="http://www.w3.org/1999/xlink" xlink:href="#linearGradientF8FBFEEDF5FCDEEDFAD4E7F8E2E5E9" id="linearGradientF8FBFEEDF5FCDEEDFAD4E7F8E2E5E9_1153770557" x1="0" y1="66.0" x2="0" y2="172.0" gradientUnits="userSpaceOnUse" xlink:type="simple" xlink:actuate="onLoad" xlink:show="other" /><linearGradient xmlns:xlink="http://www.w3.org/1999/xlink" xlink:href="#linearGradientF8FBFEEDF5FCDEEDFAD4E7F8E2E5E9" id="linearGradientF8FBFEEDF5FCDEEDFAD4E7F8E2E5E9_756091577" x1="0" y1="1046.0" x2="0" y2="1152.0" gradientUnits="userSpaceOnUse" xlink:type="simple" xlink:actuate="onLoad" xlink:show="other" /><linearGradient xmlns:xlink="http://www.w3.org/1999/xlink" xlink:href="#linearGradientFAFBFCFFFFCC" id="linearGradientFAFBFCFFFFCC_769584783" x1="0" y1="1040.0" x2="0" y2="1100.0" gradientUnits="userSpaceOnUse" xlink:type="simple" xlink:actuate="onLoad" xlink:show="other" /><linearGradient xmlns:xlink="http://www.w3.org/1999/xlink" xlink:href="#linearGradientF8FBFEEDF5FCDEEDFAD4E7F8E2E5E9" id="linearGradientF8FBFEEDF5FCDEEDFAD4E7F8E2E5E9_411273350" x1="0" y1="615.0" x2="0" y2="721.0" gradientUnits="userSpaceOnUse" xlink:type="simple" xlink:actuate="onLoad" xlink:show="other" /><linearGradient xmlns:xlink="http://www.w3.org/1999/xlink" xlink:href="#linearGradientF8FBFEEDF5FCDEEDFAD4E7F8E2E5E9" id="linearGradientF8FBFEEDF5FCDEEDFAD4E7F8E2E5E9_1972024167" x1="0" y1="615.0" x2="0" y2="721.0" gradientUnits="userSpaceOnUse" xlink:type="simple" xlink:actuate="onLoad" xlink:show="other" /><linearGradient xmlns:xlink="http://www.w3.org/1999/xlink" xlink:href="#linearGradientF8FBFEEDF5FCDEEDFAD4E7F8E2E5E9" id="linearGradientF8FBFEEDF5FCDEEDFAD4E7F8E2E5E9_1349204909" x1="0" y1="70.0" x2="0" y2="176.0" gradientUnits="userSpaceOnUse" xlink:type="simple" xlink:actuate="onLoad" xlink:show="other" /><linearGradient xmlns:xlink="http://www.w3.org/1999/xlink" xlink:href="#linearGradientFF6666FF9696FFB6B6" id="linearGradientFF6666FF9696FFB6B6_169549241" x1="0" y1="100.0" x2="0" y2="135.0" gradientUnits="userSpaceOnUse" xlink:type="simple" xlink:actuate="onLoad" xlink:show="other" /><linearGradient xmlns:xlink="http://www.w3.org/1999/xlink" xlink:href="#linearGradientFAFBFCFFFFCC" id="linearGradientFAFBFCFFFFCC_240673732" x1="0" y1="770.0" x2="0" y2="830.0" gradientUnits="userSpaceOnUse" xlink:type="simple" xlink:actuate="onLoad" xlink:show="other" /></defs></svg>
