<?xml version="1.0" encoding="UTF-8"?>
<svg xmlns="http://www.w3.org/2000/svg" style="stroke-dasharray:none; shape-rendering:auto; font-family:'Arial'; text-rendering:auto; fill-opacity:1; color-interpolation:auto; color-rendering:auto; font-size:12; fill:black; stroke:black; image-rendering:auto; stroke-miterlimit:10; stroke-linecap:square; stroke-linejoin:miter; font-style:normal; stroke-width:1; stroke-dashoffset:0; font-weight:normal; stroke-opacity:1;" contentScriptType="text/ecmascript" preserveAspectRatio="xMidYMid meet" zoomAndPan="magnify" version="1.0" contentStyleType="text/css" xml:xlink="http://www.w3.org/1999/xlink" width="1781" height="1207"><rect x="0" y="183" width="1781" height="175" ry="0" rx="0" style="stroke:#000000; fill:#D9ECEC" /><g componentSequence="3"><text x="-270" y="7" transform="rotate(270)" text-anchor="middle" style="font-weight:bold;font-size:10px;stroke:none; fill:#434343"><tspan dy="14" x="-270">MATRIZ</tspan></text></g><rect x="0" y="740" width="1781" height="145" ry="0" rx="0" style="stroke:#000000; fill:#8DC7C7" /><g componentSequence="1"><text x="-812" y="7" transform="rotate(270)" text-anchor="middle" style="font-weight:bold;font-size:10px;stroke:none; fill:#434343"><tspan dy="14" x="-812">APROVAÇÃO OBRA</tspan></text></g><rect x="0" y="0" width="1781" height="184" ry="0" rx="0" style="stroke:#000000; fill:#F1F8F8" /><g componentSequence="5"><text x="-92" y="7" transform="rotate(270)" text-anchor="middle" style="font-weight:bold;font-size:10px;stroke:none; fill:#434343"><tspan dy="14" x="-92">OBRA</tspan></text></g><rect x="0" y="884" width="1781" height="323" ry="0" rx="0" style="stroke:#000000; fill:#71B9B9" /><g componentSequence="4"><text x="-1045" y="7" transform="rotate(270)" text-anchor="middle" style="font-weight:bold;font-size:10px;stroke:none; fill:#434343"><tspan dy="14" x="-1045">Aprovações</tspan></text></g><rect x="0" y="573" width="1781" height="171" ry="0" rx="0" style="stroke:#000000; fill:#A8D5D5" /><g componentSequence="2"><text x="-658" y="7" transform="rotate(270)" text-anchor="middle" style="font-weight:bold;font-size:10px;stroke:none; fill:#434343"><tspan dy="14" x="-658">CONTROLADORIA</tspan></text></g><rect x="0" y="358" width="1781" height="216" ry="0" rx="0" style="stroke:#000000; fill:#C0E0E0" /><g componentSequence="6"><text x="-466" y="7" transform="rotate(270)" text-anchor="middle" style="font-weight:bold;font-size:10px;stroke:none; fill:#434343"><tspan dy="14" x="-466">JURÍDICO</tspan></text></g><g sequence="4"><ellipse cx="317" cy="37" rx="17" ry="17" stroke-width="1" style="fill:url(#linearGradient66FF6696FF96B6FFB6_160110365);" stroke="336633" /></g><g sequence="5"><rect x="270" y="400" width="106" height="56" ry="5" rx="5" style="fill:url(#linearGradientF8FBFEEDF5FCDEEDFAD4E7F8E2E5E9_122484828);" stroke="191970" /></g><g componentSequence="5"><text x="323" y="417" text-anchor="middle" style="font-weight:bold;font-size:10px;stroke:none; fill:#333399"><tspan dy="14" x="323">Jurídico</tspan></text></g><g sequence="11"><polygon points=" 290 126 320 96 350 126 320 156 290 126" style="fill:url(#linearGradientFAFBFCFFFFCC_57900141);" stroke="000000" /></g><g componentSequence="11"><text x="320" y="159" text-anchor="middle" style="font-weight:bold;font-size:10px;stroke:none; fill:#333399"><tspan dy="14" x="320">Opção</tspan></text></g><g sequence="15"><polygon points=" 420 250 450 220 480 250 450 280 420 250" style="fill:url(#linearGradientFAFBFCFFFFCC_1181872743);" stroke="000000" /></g><path style="fill:none; stroke-width:6; stroke:#000000;" d="M440.0 250.0 L460.0 250.0" /><path style="fill:none; stroke-width:6; stroke:#000000;" d="M450.0 240.0 L450.0 260.0" /><g componentSequence="15"><text x="450" y="290" text-anchor="middle" style="font-weight:bold;font-size:10px;stroke:none; fill:#333399"><tspan dy="14" x="450">Divisão</tspan><tspan dy="14" x="450">de Fluxo</tspan></text></g><g sequence="17"><rect x="600" y="210" width="106" height="56" ry="5" rx="5" style="fill:url(#linearGradientF8FBFEEDF5FCDEEDFAD4E7F8E2E5E9_395523659);" stroke="191970" /></g><g componentSequence="17"><text x="653" y="227" text-anchor="middle" style="font-weight:bold;font-size:10px;stroke:none; fill:#333399"><tspan dy="14" x="653">Suprimentos</tspan></text></g><g sequence="19"><rect x="600" y="280" width="106" height="56" ry="5" rx="5" style="fill:url(#linearGradientF8FBFEEDF5FCDEEDFAD4E7F8E2E5E9_2004726525);" stroke="191970" /></g><g componentSequence="19"><text x="653" y="297" text-anchor="middle" style="font-weight:bold;font-size:10px;stroke:none; fill:#333399"><tspan dy="14" x="653">Segurança</tspan></text></g><g sequence="21"><polygon points=" 850 250 880 220 910 250 880 280 850 250" style="fill:url(#linearGradientFAFBFCFFFFCC_1869949035);" stroke="000000" /></g><path style="fill:none; stroke-width:6; stroke:#000000;" d="M870.0 250.0 L890.0 250.0" /><path style="fill:none; stroke-width:6; stroke:#000000;" d="M880.0 240.0 L880.0 260.0" /><g componentSequence="21"><text x="880" y="290" text-anchor="middle" style="font-weight:bold;font-size:10px;stroke:none; fill:#333399"><tspan dy="14" x="880">Junção</tspan><tspan dy="14" x="880">de Fluxo</tspan></text></g><g sequence="24"><polygon points=" 1010 260 1040 230 1070 260 1040 290 1010 260" style="fill:url(#linearGradientFAFBFCFFFFCC_643697960);" stroke="000000" /></g><g componentSequence="24"><text x="1040" y="293" text-anchor="middle" style="font-weight:bold;font-size:10px;stroke:none; fill:#333399"><tspan dy="14" x="1040">Opção</tspan></text></g><g sequence="30"><polygon points=" 300 520 330 490 360 520 330 550 300 520" style="fill:url(#linearGradientFAFBFCFFFFCC_678516422);" stroke="000000" /></g><g componentSequence="30"><text x="330" y="553" text-anchor="middle" style="font-weight:bold;font-size:10px;stroke:none; fill:#333399"><tspan dy="14" x="330">Opção</tspan></text></g><g sequence="32"><rect x="280" y="623" width="106" height="56" ry="5" rx="5" style="fill:url(#linearGradientF8FBFEEDF5FCDEEDFAD4E7F8E2E5E9_847377263);" stroke="191970" /></g><g componentSequence="32"><text x="333" y="640" text-anchor="middle" style="font-weight:bold;font-size:10px;stroke:none; fill:#333399"><tspan dy="14" x="333">Controladoria</tspan></text></g><g sequence="34"><polygon points=" 510 645 540 615 570 645 540 675 510 645" style="fill:url(#linearGradientFAFBFCFFFFCC_1953604388);" stroke="000000" /></g><g componentSequence="34"><text x="540" y="678" text-anchor="middle" style="font-weight:bold;font-size:10px;stroke:none; fill:#333399"><tspan dy="14" x="540">Opção</tspan></text></g><g sequence="37"><ellipse cx="697" cy="660" rx="17" ry="17" stroke-width="3" style="fill:url(#linearGradientFF6666FF9696FFB6B6_571529167);" stroke="993333" /></g><g sequence="43"><rect x="490" y="790" width="106" height="56" ry="5" rx="5" style="fill:url(#linearGradientF8FBFEEDF5FCDEEDFAD4E7F8E2E5E9_16085549);" stroke="191970" /></g><g componentSequence="43"><text x="543" y="807" text-anchor="middle" style="font-weight:bold;font-size:10px;stroke:none; fill:#333399"><tspan dy="14" x="543">Engenheiro</tspan></text></g><g sequence="46"><polygon points=" 660 810 690 780 720 810 690 840 660 810" style="fill:url(#linearGradientFAFBFCFFFFCC_1028842455);" stroke="000000" /></g><g componentSequence="46"><text x="690" y="843" text-anchor="middle" style="font-weight:bold;font-size:10px;stroke:none; fill:#333399"><tspan dy="14" x="690">Opção</tspan></text></g><g sequence="48"><rect x="800" y="790" width="106" height="56" ry="5" rx="5" style="fill:url(#linearGradientF8FBFEEDF5FCDEEDFAD4E7F8E2E5E9_1153638362);" stroke="191970" /></g><g componentSequence="48"><text x="853" y="807" text-anchor="middle" style="font-weight:bold;font-size:10px;stroke:none; fill:#333399"><tspan dy="14" x="853">Coord. Obras</tspan></text></g><g sequence="51"><polygon points=" 1000 798 1030 768 1060 798 1030 828 1000 798" style="fill:url(#linearGradientFAFBFCFFFFCC_1623791138);" stroke="000000" /></g><g componentSequence="51"><text x="1030" y="831" text-anchor="middle" style="font-weight:bold;font-size:10px;stroke:none; fill:#333399"><tspan dy="14" x="1030">Opção</tspan></text></g><g sequence="53"><rect x="1120" y="784" width="106" height="56" ry="5" rx="5" style="fill:url(#linearGradientF8FBFEEDF5FCDEEDFAD4E7F8E2E5E9_1258714124);" stroke="191970" /></g><g componentSequence="53"><text x="1173" y="801" text-anchor="middle" style="font-weight:bold;font-size:10px;stroke:none; fill:#333399"><tspan dy="14" x="1173">Diretoria</tspan></text></g><g sequence="55"><polygon points=" 1310 798 1340 768 1370 798 1340 828 1310 798" style="fill:url(#linearGradientFAFBFCFFFFCC_1633708768);" stroke="000000" /></g><g componentSequence="55"><text x="1340" y="831" text-anchor="middle" style="font-weight:bold;font-size:10px;stroke:none; fill:#333399"><tspan dy="14" x="1340">Opção</tspan></text></g><g sequence="58"><ellipse cx="1537" cy="813" rx="17" ry="17" stroke-width="1" style="fill:url(#linearGradientFFFF66FFFF96FFFFB6_1023513817);" stroke="999900" /></g><g sequence="58"><rect x="1527" y="803" width="21" height="21" ry="0" rx="0" style="stroke:#000000; fill:none" /></g><g sequence="58"><path style="fill:none; stroke-width:1; stroke:#000000;" d="M1529.0 806.0 L1544.0 806.0" /></g><g sequence="58"><path style="fill:none; stroke-width:1; stroke:#000000;" d="M1529.0 811.0 L1544.0 811.0" /></g><g sequence="58"><path style="fill:none; stroke-width:1; stroke:#000000;" d="M1529.0 816.0 L1544.0 816.0" /></g><g sequence="58"><path style="fill:none; stroke-width:1; stroke:#000000;" d="M1529.0 821.0 L1544.0 821.0" /></g><g sequence="60"><polygon points=" 1510 930 1540 900 1570 930 1540 960 1510 930" style="fill:url(#linearGradientFAFBFCFFFFCC_366079325);" stroke="000000" /></g><g componentSequence="60"><text x="1540" y="963" text-anchor="middle" style="font-weight:bold;font-size:10px;stroke:none; fill:#333399"><tspan dy="14" x="1540">Opção</tspan></text></g><g sequence="62"><ellipse cx="1697" cy="947" rx="17" ry="17" stroke-width="3" style="fill:url(#linearGradientFF6666FF9696FFB6B6_1829719551);" stroke="993333" /></g><g sequence="64"><rect x="1280" y="80" width="106" height="56" ry="5" rx="5" style="fill:url(#linearGradientF8FBFEEDF5FCDEEDFAD4E7F8E2E5E9_257560020);" stroke="191970" /></g><g componentSequence="64"><text x="1333" y="97" text-anchor="middle" style="font-weight:bold;font-size:10px;stroke:none; fill:#333399"><tspan dy="14" x="1333">Adm. Obra</tspan></text></g><g sequence="66"><rect x="1490" y="1046" width="106" height="70" ry="5" rx="5" style="fill:url(#linearGradientF8FBFEEDF5FCDEEDFAD4E7F8E2E5E9_1053616058);" stroke="191970" /></g><g componentSequence="66"><text x="1543" y="1061" text-anchor="middle" style="font-weight:bold;font-size:10px;stroke:none; fill:#333399"><tspan dy="14" x="1543">Assinatura</tspan><tspan dy="14" x="1543">Eletrônica</tspan></text></g><g sequence="68"><polygon points=" 1670 1070 1700 1040 1730 1070 1700 1100 1670 1070" style="fill:url(#linearGradientFAFBFCFFFFCC_611143227);" stroke="000000" /></g><g componentSequence="68"><text x="1700" y="1103" text-anchor="middle" style="font-weight:bold;font-size:10px;stroke:none; fill:#333399"><tspan dy="14" x="1700">Opção</tspan></text></g><g sequence="72"><rect x="1580" y="615" width="106" height="84" ry="5" rx="5" style="fill:url(#linearGradientF8FBFEEDF5FCDEEDFAD4E7F8E2E5E9_865767420);" stroke="191970" /></g><g componentSequence="72"><text x="1633" y="630" text-anchor="middle" style="font-weight:bold;font-size:10px;stroke:none; fill:#333399"><tspan dy="14" x="1633">Controladoria</tspan><tspan dy="14" x="1633">Recolhe</tspan><tspan dy="14" x="1633">Assinaturas</tspan></text></g><g sequence="74"><rect x="1410" y="615" width="106" height="84" ry="5" rx="5" style="fill:url(#linearGradientF8FBFEEDF5FCDEEDFAD4E7F8E2E5E9_1827737846);" stroke="191970" /></g><g componentSequence="74"><text x="1463" y="630" text-anchor="middle" style="font-weight:bold;font-size:10px;stroke:none; fill:#333399"><tspan dy="14" x="1463">Controladoria</tspan><tspan dy="14" x="1463">Aguarda</tspan><tspan dy="14" x="1463">Recebimento</tspan></text></g><g sequence="76"><rect x="1580" y="70" width="106" height="70" ry="5" rx="5" style="fill:url(#linearGradientF8FBFEEDF5FCDEEDFAD4E7F8E2E5E9_903470053);" stroke="191970" /></g><g componentSequence="76"><text x="1633" y="85" text-anchor="middle" style="font-weight:bold;font-size:10px;stroke:none; fill:#333399"><tspan dy="14" x="1633">Obra Recebe</tspan><tspan dy="14" x="1633">Vias Originais</tspan></text></g><g sequence="83"><ellipse cx="1757" cy="117" rx="17" ry="17" stroke-width="3" style="fill:url(#linearGradientFF6666FF9696FFB6B6_2064336883);" stroke="993333" /></g><g componentSequence="12"><text x="329" y="75" style="font-size:10px;font-weight:none;stroke:none; fill:#333399" text-anchor="left" /></g><g componentSequence="44"><text x="184" y="524" style="font-size:10px;font-weight:none;stroke:none; fill:#333399" text-anchor="left" /></g><g componentSequence="31"><text x="336" y="473" style="font-size:10px;font-weight:none;stroke:none; fill:#333399" text-anchor="left" /></g><g componentSequence="13"><text x="331" y="292" style="font-size:10px;font-weight:none;stroke:none; fill:#333399" text-anchor="left" /></g><g componentSequence="16"><text x="331" y="282" style="font-size:10px;font-weight:none;stroke:none; fill:#333399" text-anchor="left" /></g><g componentSequence="18"><text x="550" y="256" style="font-size:10px;font-weight:none;stroke:none; fill:#333399" text-anchor="left" /></g><g componentSequence="20"><text x="550" y="287" style="font-size:10px;font-weight:none;stroke:none; fill:#333399" text-anchor="left" /></g><g componentSequence="22"><text x="788" y="256" style="font-size:10px;font-weight:none;stroke:none; fill:#333399" text-anchor="left" /></g><g componentSequence="23"><text x="788" y="288" style="font-size:10px;font-weight:none;stroke:none; fill:#333399" text-anchor="left" /></g><g componentSequence="25"><text x="970" y="272" style="font-size:10px;font-weight:none;stroke:none; fill:#333399" text-anchor="left" /></g><g componentSequence="27"><text x="793" y="37" style="font-size:10px;font-weight:none;stroke:none; fill:#333399" text-anchor="left" /></g><g componentSequence="28"><text x="774" y="429" style="font-size:10px;font-weight:none;stroke:none; fill:#333399" text-anchor="left" /></g><g componentSequence="33"><text x="342" y="600" style="font-size:10px;font-weight:none;stroke:none; fill:#333399" text-anchor="left" /></g><g componentSequence="39"><text x="201" y="287" style="font-size:10px;font-weight:none;stroke:none; fill:#333399" text-anchor="left" /></g><g componentSequence="35"><text x="458" y="655" style="font-size:10px;font-weight:none;stroke:none; fill:#333399" text-anchor="left" /></g><g componentSequence="36"><text x="550" y="439" style="font-size:10px;font-weight:none;stroke:none; fill:#333399" text-anchor="left" /></g><g componentSequence="38"><text x="635" y="660" style="font-size:10px;font-weight:none;stroke:none; fill:#333399" text-anchor="left" /></g><g componentSequence="45"><text x="551" y="746" style="font-size:10px;font-weight:none;stroke:none; fill:#333399" text-anchor="left" /></g><g componentSequence="47"><text x="638" y="821" style="font-size:10px;font-weight:none;stroke:none; fill:#333399" text-anchor="left" /></g><g componentSequence="49"><text x="770" y="821" style="font-size:10px;font-weight:none;stroke:none; fill:#333399" text-anchor="left" /></g><g componentSequence="78"><text x="156" y="716" style="font-size:10px;font-weight:none;stroke:none; fill:#333399" text-anchor="left" /></g><g componentSequence="79"><text x="427" y="909" style="font-size:10px;font-weight:none;stroke:none; fill:#333399" text-anchor="left" /></g><g componentSequence="80"><text x="1018" y="691" style="font-size:10px;font-weight:none;stroke:none; fill:#333399" text-anchor="left" /></g><g componentSequence="81"><text x="954" y="928" style="font-size:10px;font-weight:none;stroke:none; fill:#333399" text-anchor="left" /></g><g componentSequence="52"><text x="963" y="815" style="font-size:10px;font-weight:none;stroke:none; fill:#333399" text-anchor="left" /></g><g componentSequence="54"><text x="1100" y="812" style="font-size:10px;font-weight:none;stroke:none; fill:#333399" text-anchor="left" /></g><g componentSequence="57"><text x="1195" y="716" style="font-size:10px;font-weight:none;stroke:none; fill:#333399" text-anchor="left" /></g><g componentSequence="56"><text x="1278" y="812" style="font-size:10px;font-weight:none;stroke:none; fill:#333399" text-anchor="left" /></g><g componentSequence="59"><text x="1455" y="813" style="font-size:10px;font-weight:none;stroke:none; fill:#333399" text-anchor="left" /></g><g componentSequence="65"><text x="1346" y="452" style="font-size:10px;font-weight:none;stroke:none; fill:#333399" text-anchor="left" /></g><g componentSequence="82"><text x="758" y="987" style="font-size:10px;font-weight:none;stroke:none; fill:#333399" text-anchor="left" /></g><g componentSequence="85"><text x="945" y="1019" style="font-size:10px;font-weight:none;stroke:none; fill:#333399" text-anchor="left" /></g><g componentSequence="86"><text x="245" y="1049" style="font-size:10px;font-weight:none;stroke:none; fill:#333399" text-anchor="left" /></g><g componentSequence="61"><text x="1548" y="865" style="font-size:10px;font-weight:none;stroke:none; fill:#333399" text-anchor="left" /></g><g componentSequence="63"><text x="1635" y="946" style="font-size:10px;font-weight:none;stroke:none; fill:#333399" text-anchor="left" /></g><g componentSequence="67"><text x="1552" y="1017" style="font-size:10px;font-weight:none;stroke:none; fill:#333399" text-anchor="left" /></g><g componentSequence="73"><text x="1468" y="327" style="font-size:10px;font-weight:none;stroke:none; fill:#333399" text-anchor="left" /></g><g componentSequence="69"><text x="1643" y="1083" style="font-size:10px;font-weight:none;stroke:none; fill:#333399" text-anchor="left" /></g><g componentSequence="70"><text x="1708" y="1002" style="font-size:10px;font-weight:none;stroke:none; fill:#333399" text-anchor="left" /></g><g componentSequence="71"><text x="802" y="1159" style="font-size:10px;font-weight:none;stroke:none; fill:#333399" text-anchor="left" /></g><g componentSequence="77"><text x="1643" y="377" style="font-size:10px;font-weight:none;stroke:none; fill:#333399" text-anchor="left" /></g><g componentSequence="75"><text x="1558" y="657" style="font-size:10px;font-weight:none;stroke:none; fill:#333399" text-anchor="left" /></g><g componentSequence="84"><text x="1723" y="113" style="font-size:10px;font-weight:none;stroke:none; fill:#333399" text-anchor="left" /></g><path style="fill:none; stroke:#000000;stroke-width:1" d="M317.0 54.0 L318.0 95.0" /><polygon style="fill:#000000; stroke:#000000;" points=" 323 85 318 95 313 85 318 87" /><path style="fill:none; stroke:#000000;stroke-width:1" d="M299.0 37.0 L174.0 37.0 L174.0 820.0 L489.0 818.0" /><polygon style="fill:#000000; stroke:#000000;" points=" 479 813 489 818 479 823 481 818" /><path style="fill:none; stroke:#000000;stroke-width:1" d="M1039.0 229.0 L1039.0 37.0 L335.0 37.0" /><polygon style="fill:#000000; stroke:#000000;" points=" 345 42 335 37 345 32 343 37" /><path style="fill:none; stroke:#000000;stroke-width:1" d="M299.0 534.0 L191.0 536.0 L191.0 37.0 L299.0 37.0" /><polygon style="fill:#000000; stroke:#000000;" points=" 289 32 299 37 289 42 291 37" /><path style="fill:none; stroke:#000000;stroke-width:1" d="M689.0 868.0 L689.0 936.0 L146.0 936.0 L146.0 37.0 L299.0 37.0" /><polygon style="fill:#000000; stroke:#000000;" points=" 289 32 299 37 289 42 291 37" /><path style="fill:none; stroke:#000000;stroke-width:1" d="M1339.0 856.0 L1339.0 1049.0 L124.0 1049.0 L124.0 37.0 L299.0 37.0" /><polygon style="fill:#000000; stroke:#000000;" points=" 289 32 299 37 289 42 291 37" /><path style="fill:none; stroke:#000000;stroke-width:1" d="M325.0 456.0 L327.0 489.0" /><polygon style="fill:#000000; stroke:#000000;" points=" 331 479 327 489 321 479 327 481" /><path style="fill:none; stroke:#000000;stroke-width:1" d="M320.0 184.0 L322.0 399.0" /><polygon style="fill:#000000; stroke:#000000;" points=" 327 389 322 399 317 389 322 391" /><path style="fill:none; stroke:#000000;stroke-width:1" d="M1040.0 318.0 L1040.0 430.0 L376.0 428.0" /><polygon style="fill:#000000; stroke:#000000;" points=" 386 433 376 428 386 423 384 428" /><path style="fill:none; stroke:#000000;stroke-width:1" d="M540.0 614.0 L540.0 429.0 L376.0 428.0" /><polygon style="fill:#000000; stroke:#000000;" points=" 386 433 376 428 386 423 384 428" /><path style="fill:none; stroke:#000000;stroke-width:1" d="M320.0 184.0 L320.0 282.0 L419.0 273.0" /><polygon style="fill:#000000; stroke:#000000;" points=" 409 269 419 273 409 279 411 274" /><path style="fill:none; stroke:#000000;stroke-width:1" d="M480.0 266.0 L599.0 246.0" /><polygon style="fill:#000000; stroke:#000000;" points=" 588 243 599 246 590 253 591 247" /><path style="fill:none; stroke:#000000;stroke-width:1" d="M480.0 276.0 L599.0 298.0" /><polygon style="fill:#000000; stroke:#000000;" points=" 590 291 599 298 588 301 591 297" /><path style="fill:none; stroke:#000000;stroke-width:1" d="M706.0 245.0 L849.0 266.0" /><polygon style="fill:#000000; stroke:#000000;" points=" 840 260 849 266 838 269 841 265" /><path style="fill:none; stroke:#000000;stroke-width:1" d="M706.0 299.0 L849.0 276.0" /><polygon style="fill:#000000; stroke:#000000;" points=" 838 273 849 276 840 283 841 277" /><path style="fill:none; stroke:#000000;stroke-width:1" d="M910.0 271.0 L1009.0 273.0" /><polygon style="fill:#000000; stroke:#000000;" points=" 999 268 1009 273 999 278 1001 273" /><path style="fill:none; stroke:#000000;stroke-width:1" d="M331.0 578.0 L332.0 622.0" /><polygon style="fill:#000000; stroke:#000000;" points=" 337 612 332 622 327 612 332 614" /><path style="fill:none; stroke:#000000;stroke-width:1" d="M386.0 653.0 L509.0 657.0" /><polygon style="fill:#000000; stroke:#000000;" points=" 499 652 509 657 499 662 501 657" /><path style="fill:none; stroke:#000000;stroke-width:1" d="M690.0 868.0 L690.0 909.0 L333.0 909.0 L333.0 679.0" /><polygon style="fill:#000000; stroke:#000000;" points=" 328 689 333 679 338 689 333 687" /><path style="fill:none; stroke:#000000;stroke-width:1" d="M1339.0 856.0 L1339.0 987.0 L333.0 987.0 L333.0 679.0" /><polygon style="fill:#000000; stroke:#000000;" points=" 328 689 333 679 338 689 333 687" /><path style="fill:none; stroke:#000000;stroke-width:1" d="M1700.0 1128.0 L1700.0 1159.0 L333.0 1159.0 L333.0 679.0" /><polygon style="fill:#000000; stroke:#000000;" points=" 328 689 333 679 338 689 333 687" /><path style="fill:none; stroke:#000000;stroke-width:1" d="M570.0 659.0 L680.0 660.0" /><polygon style="fill:#000000; stroke:#000000;" points=" 670 655 680 660 670 665 672 660" /><path style="fill:none; stroke:#000000;stroke-width:1" d="M540.0 703.0 L542.0 789.0" /><polygon style="fill:#000000; stroke:#000000;" points=" 547 779 542 789 537 779 542 781" /><path style="fill:none; stroke:#000000;stroke-width:1" d="M596.0 820.0 L659.0 822.0" /><polygon style="fill:#000000; stroke:#000000;" points=" 649 817 659 822 649 827 651 822" /><path style="fill:none; stroke:#000000;stroke-width:1" d="M1340.0 856.0 L1340.0 1019.0 L541.0 1019.0 L542.0 846.0" /><polygon style="fill:#000000; stroke:#000000;" points=" 537 856 542 846 547 856 542 854" /><path style="fill:none; stroke:#000000;stroke-width:1" d="M720.0 822.0 L799.0 820.0" /><polygon style="fill:#000000; stroke:#000000;" points=" 789 815 799 820 789 825 791 820" /><path style="fill:none; stroke:#000000;stroke-width:1" d="M689.0 779.0 L689.0 691.0 L1339.0 691.0 L1339.0 767.0" /><polygon style="fill:#000000; stroke:#000000;" points=" 1344 757 1339 767 1334 757 1339 759" /><path style="fill:none; stroke:#000000;stroke-width:1" d="M688.0 868.0 L687.0 928.0 L1174.0 928.0 L1173.0 840.0" /><polygon style="fill:#000000; stroke:#000000;" points=" 1168 850 1173 840 1178 850 1173 848" /><path style="fill:none; stroke:#000000;stroke-width:1" d="M906.0 816.0 L999.0 813.0" /><polygon style="fill:#000000; stroke:#000000;" points=" 989 808 999 813 989 818 991 813" /><path style="fill:none; stroke:#000000;stroke-width:1" d="M1060.0 812.0 L1119.0 812.0" /><polygon style="fill:#000000; stroke:#000000;" points=" 1109 807 1119 812 1109 817 1111 812" /><path style="fill:none; stroke:#000000;stroke-width:1" d="M1030.0 767.0 L1030.0 716.0 L1340.0 716.0 L1340.0 767.0" /><polygon style="fill:#000000; stroke:#000000;" points=" 1345 757 1340 767 1335 757 1340 759" /><path style="fill:none; stroke:#000000;stroke-width:1" d="M1226.0 812.0 L1309.0 812.0" /><polygon style="fill:#000000; stroke:#000000;" points=" 1299 807 1309 812 1299 817 1301 812" /><path style="fill:none; stroke:#000000;stroke-width:1" d="M1370.0 812.0 L1520.0 813.0" /><polygon style="fill:#000000; stroke:#000000;" points=" 1510 808 1520 813 1510 818 1512 813" /><path style="fill:none; stroke:#000000;stroke-width:1" d="M1339.0 767.0 L1333.0 136.0" /><polygon style="fill:#000000; stroke:#000000;" points=" 1328 146 1333 136 1338 146 1333 144" /><path style="fill:none; stroke:#000000;stroke-width:1" d="M1537.0 830.0 L1539.0 899.0" /><polygon style="fill:#000000; stroke:#000000;" points=" 1544 889 1539 899 1534 889 1539 891" /><path style="fill:none; stroke:#000000;stroke-width:1" d="M1570.0 944.0 L1680.0 947.0" /><polygon style="fill:#000000; stroke:#000000;" points=" 1670 942 1680 947 1670 952 1672 947" /><path style="fill:none; stroke:#000000;stroke-width:1" d="M1541.0 988.0 L1542.0 1045.0" /><polygon style="fill:#000000; stroke:#000000;" points=" 1547 1035 1542 1045 1537 1035 1542 1037" /><path style="fill:none; stroke:#000000;stroke-width:1" d="M1699.0 1039.0 L1697.0 964.0" /><polygon style="fill:#000000; stroke:#000000;" points=" 1692 974 1697 964 1702 974 1697 972" /><path style="fill:none; stroke:#000000;stroke-width:1" d="M1386.0 109.0 L1455.0 110.0 L1462.0 614.0" /><polygon style="fill:#000000; stroke:#000000;" points=" 1467 604 1462 614 1457 604 1462 606" /><path style="fill:none; stroke:#000000;stroke-width:1" d="M1596.0 1082.0 L1669.0 1083.0" /><polygon style="fill:#000000; stroke:#000000;" points=" 1659 1078 1669 1083 1659 1088 1661 1083" /><path style="fill:none; stroke:#000000;stroke-width:1" d="M1633.0 614.0 L1633.0 140.0" /><polygon style="fill:#000000; stroke:#000000;" points=" 1628 150 1633 140 1638 150 1633 148" /><path style="fill:none; stroke:#000000;stroke-width:1" d="M1516.0 657.0 L1579.0 657.0" /><polygon style="fill:#000000; stroke:#000000;" points=" 1569 652 1579 657 1569 662 1571 657" /><path style="fill:none; stroke:#000000;stroke-width:1" d="M1686.0 110.0 L1740.0 116.0" /><polygon style="fill:#000000; stroke:#000000;" points=" 1731 110 1740 116 1730 120 1732 115" /><defs><linearGradient xmlns:xlink="http://www.w3.org/1999/xlink" xlink:href="#linearGradient66FF6696FF96B6FFB6" id="linearGradient66FF6696FF96B6FFB6_160110365" x1="0" y1="20.0" x2="0" y2="55.0" gradientUnits="userSpaceOnUse" xlink:type="simple" xlink:actuate="onLoad" xlink:show="other" /><linearGradient id="linearGradient66FF6696FF96B6FFB6"><stop style="stop-color:#66FF66;stop-opacity:1;" offset="0.0" id="stop66FF66" /><stop style="stop-color:#96FF96;stop-opacity:1;" offset="0.5" id="stop96FF96" /><stop style="stop-color:#B6FFB6;stop-opacity:1;" offset="1.0" id="stopB6FFB6" /></linearGradient><linearGradient xmlns:xlink="http://www.w3.org/1999/xlink" xlink:href="#linearGradientF8FBFEEDF5FCDEEDFAD4E7F8E2E5E9" id="linearGradientF8FBFEEDF5FCDEEDFAD4E7F8E2E5E9_122484828" x1="0" y1="400.0" x2="0" y2="506.0" gradientUnits="userSpaceOnUse" xlink:type="simple" xlink:actuate="onLoad" xlink:show="other" /><linearGradient id="linearGradientF8FBFEEDF5FCDEEDFAD4E7F8E2E5E9"><stop style="stop-color:#F8FBFE;stop-opacity:1;" offset="0.0" id="stopF8FBFE" /><stop style="stop-color:#EDF5FC;stop-opacity:1;" offset="0.25" id="stopEDF5FC" /><stop style="stop-color:#DEEDFA;stop-opacity:1;" offset="0.5" id="stopDEEDFA" /><stop style="stop-color:#D4E7F8;stop-opacity:1;" offset="0.75" id="stopD4E7F8" /><stop style="stop-color:#E2E5E9;stop-opacity:1;" offset="1.0" id="stopE2E5E9" /></linearGradient><linearGradient xmlns:xlink="http://www.w3.org/1999/xlink" xlink:href="#linearGradientFAFBFCFFFFCC" id="linearGradientFAFBFCFFFFCC_57900141" x1="0" y1="96.0" x2="0" y2="156.0" gradientUnits="userSpaceOnUse" xlink:type="simple" xlink:actuate="onLoad" xlink:show="other" /><linearGradient id="linearGradientFAFBFCFFFFCC"><stop style="stop-color:#FAFBFC;stop-opacity:1;" offset="0.0" id="stopFAFBFC" /><stop style="stop-color:#FFFFCC;stop-opacity:1;" offset="1.0" id="stopFFFFCC" /></linearGradient><linearGradient xmlns:xlink="http://www.w3.org/1999/xlink" xlink:href="#linearGradientFAFBFCFFFFCC" id="linearGradientFAFBFCFFFFCC_1181872743" x1="0" y1="220.0" x2="0" y2="280.0" gradientUnits="userSpaceOnUse" xlink:type="simple" xlink:actuate="onLoad" xlink:show="other" /><linearGradient xmlns:xlink="http://www.w3.org/1999/xlink" xlink:href="#linearGradientF8FBFEEDF5FCDEEDFAD4E7F8E2E5E9" id="linearGradientF8FBFEEDF5FCDEEDFAD4E7F8E2E5E9_395523659" x1="0" y1="210.0" x2="0" y2="316.0" gradientUnits="userSpaceOnUse" xlink:type="simple" xlink:actuate="onLoad" xlink:show="other" /><linearGradient xmlns:xlink="http://www.w3.org/1999/xlink" xlink:href="#linearGradientF8FBFEEDF5FCDEEDFAD4E7F8E2E5E9" id="linearGradientF8FBFEEDF5FCDEEDFAD4E7F8E2E5E9_2004726525" x1="0" y1="280.0" x2="0" y2="386.0" gradientUnits="userSpaceOnUse" xlink:type="simple" xlink:actuate="onLoad" xlink:show="other" /><linearGradient xmlns:xlink="http://www.w3.org/1999/xlink" xlink:href="#linearGradientFAFBFCFFFFCC" id="linearGradientFAFBFCFFFFCC_1869949035" x1="0" y1="220.0" x2="0" y2="280.0" gradientUnits="userSpaceOnUse" xlink:type="simple" xlink:actuate="onLoad" xlink:show="other" /><linearGradient xmlns:xlink="http://www.w3.org/1999/xlink" xlink:href="#linearGradientFAFBFCFFFFCC" id="linearGradientFAFBFCFFFFCC_643697960" x1="0" y1="230.0" x2="0" y2="290.0" gradientUnits="userSpaceOnUse" xlink:type="simple" xlink:actuate="onLoad" xlink:show="other" /><linearGradient xmlns:xlink="http://www.w3.org/1999/xlink" xlink:href="#linearGradientFAFBFCFFFFCC" id="linearGradientFAFBFCFFFFCC_678516422" x1="0" y1="490.0" x2="0" y2="550.0" gradientUnits="userSpaceOnUse" xlink:type="simple" xlink:actuate="onLoad" xlink:show="other" /><linearGradient xmlns:xlink="http://www.w3.org/1999/xlink" xlink:href="#linearGradientF8FBFEEDF5FCDEEDFAD4E7F8E2E5E9" id="linearGradientF8FBFEEDF5FCDEEDFAD4E7F8E2E5E9_847377263" x1="0" y1="623.0" x2="0" y2="729.0" gradientUnits="userSpaceOnUse" xlink:type="simple" xlink:actuate="onLoad" xlink:show="other" /><linearGradient xmlns:xlink="http://www.w3.org/1999/xlink" xlink:href="#linearGradientFAFBFCFFFFCC" id="linearGradientFAFBFCFFFFCC_1953604388" x1="0" y1="615.0" x2="0" y2="675.0" gradientUnits="userSpaceOnUse" xlink:type="simple" xlink:actuate="onLoad" xlink:show="other" /><linearGradient xmlns:xlink="http://www.w3.org/1999/xlink" xlink:href="#linearGradientFF6666FF9696FFB6B6" id="linearGradientFF6666FF9696FFB6B6_571529167" x1="0" y1="643.0" x2="0" y2="678.0" gradientUnits="userSpaceOnUse" xlink:type="simple" xlink:actuate="onLoad" xlink:show="other" /><linearGradient id="linearGradientFF6666FF9696FFB6B6"><stop style="stop-color:#FF6666;stop-opacity:1;" offset="0.0" id="stopFF6666" /><stop style="stop-color:#FF9696;stop-opacity:1;" offset="0.5" id="stopFF9696" /><stop style="stop-color:#FFB6B6;stop-opacity:1;" offset="1.0" id="stopFFB6B6" /></linearGradient><linearGradient xmlns:xlink="http://www.w3.org/1999/xlink" xlink:href="#linearGradientF8FBFEEDF5FCDEEDFAD4E7F8E2E5E9" id="linearGradientF8FBFEEDF5FCDEEDFAD4E7F8E2E5E9_16085549" x1="0" y1="790.0" x2="0" y2="896.0" gradientUnits="userSpaceOnUse" xlink:type="simple" xlink:actuate="onLoad" xlink:show="other" /><linearGradient xmlns:xlink="http://www.w3.org/1999/xlink" xlink:href="#linearGradientFAFBFCFFFFCC" id="linearGradientFAFBFCFFFFCC_1028842455" x1="0" y1="780.0" x2="0" y2="840.0" gradientUnits="userSpaceOnUse" xlink:type="simple" xlink:actuate="onLoad" xlink:show="other" /><linearGradient xmlns:xlink="http://www.w3.org/1999/xlink" xlink:href="#linearGradientF8FBFEEDF5FCDEEDFAD4E7F8E2E5E9" id="linearGradientF8FBFEEDF5FCDEEDFAD4E7F8E2E5E9_1153638362" x1="0" y1="790.0" x2="0" y2="896.0" gradientUnits="userSpaceOnUse" xlink:type="simple" xlink:actuate="onLoad" xlink:show="other" /><linearGradient xmlns:xlink="http://www.w3.org/1999/xlink" xlink:href="#linearGradientFAFBFCFFFFCC" id="linearGradientFAFBFCFFFFCC_1623791138" x1="0" y1="768.0" x2="0" y2="828.0" gradientUnits="userSpaceOnUse" xlink:type="simple" xlink:actuate="onLoad" xlink:show="other" /><linearGradient xmlns:xlink="http://www.w3.org/1999/xlink" xlink:href="#linearGradientF8FBFEEDF5FCDEEDFAD4E7F8E2E5E9" id="linearGradientF8FBFEEDF5FCDEEDFAD4E7F8E2E5E9_1258714124" x1="0" y1="784.0" x2="0" y2="890.0" gradientUnits="userSpaceOnUse" xlink:type="simple" xlink:actuate="onLoad" xlink:show="other" /><linearGradient xmlns:xlink="http://www.w3.org/1999/xlink" xlink:href="#linearGradientFAFBFCFFFFCC" id="linearGradientFAFBFCFFFFCC_1633708768" x1="0" y1="768.0" x2="0" y2="828.0" gradientUnits="userSpaceOnUse" xlink:type="simple" xlink:actuate="onLoad" xlink:show="other" /><linearGradient xmlns:xlink="http://www.w3.org/1999/xlink" xlink:href="#linearGradientFFFF66FFFF96FFFFB6" id="linearGradientFFFF66FFFF96FFFFB6_1023513817" x1="0" y1="796.0" x2="0" y2="831.0" gradientUnits="userSpaceOnUse" xlink:type="simple" xlink:actuate="onLoad" xlink:show="other" /><linearGradient id="linearGradientFFFF66FFFF96FFFFB6"><stop style="stop-color:#FFFF66;stop-opacity:1;" offset="0.0" id="stopFFFF66" /><stop style="stop-color:#FFFF96;stop-opacity:1;" offset="0.5" id="stopFFFF96" /><stop style="stop-color:#FFFFB6;stop-opacity:1;" offset="1.0" id="stopFFFFB6" /></linearGradient><linearGradient xmlns:xlink="http://www.w3.org/1999/xlink" xlink:href="#linearGradientFAFBFCFFFFCC" id="linearGradientFAFBFCFFFFCC_366079325" x1="0" y1="900.0" x2="0" y2="960.0" gradientUnits="userSpaceOnUse" xlink:type="simple" xlink:actuate="onLoad" xlink:show="other" /><linearGradient xmlns:xlink="http://www.w3.org/1999/xlink" xlink:href="#linearGradientFF6666FF9696FFB6B6" id="linearGradientFF6666FF9696FFB6B6_1829719551" x1="0" y1="930.0" x2="0" y2="965.0" gradientUnits="userSpaceOnUse" xlink:type="simple" xlink:actuate="onLoad" xlink:show="other" /><linearGradient xmlns:xlink="http://www.w3.org/1999/xlink" xlink:href="#linearGradientF8FBFEEDF5FCDEEDFAD4E7F8E2E5E9" id="linearGradientF8FBFEEDF5FCDEEDFAD4E7F8E2E5E9_257560020" x1="0" y1="80.0" x2="0" y2="186.0" gradientUnits="userSpaceOnUse" xlink:type="simple" xlink:actuate="onLoad" xlink:show="other" /><linearGradient xmlns:xlink="http://www.w3.org/1999/xlink" xlink:href="#linearGradientF8FBFEEDF5FCDEEDFAD4E7F8E2E5E9" id="linearGradientF8FBFEEDF5FCDEEDFAD4E7F8E2E5E9_1053616058" x1="0" y1="1046.0" x2="0" y2="1152.0" gradientUnits="userSpaceOnUse" xlink:type="simple" xlink:actuate="onLoad" xlink:show="other" /><linearGradient xmlns:xlink="http://www.w3.org/1999/xlink" xlink:href="#linearGradientFAFBFCFFFFCC" id="linearGradientFAFBFCFFFFCC_611143227" x1="0" y1="1040.0" x2="0" y2="1100.0" gradientUnits="userSpaceOnUse" xlink:type="simple" xlink:actuate="onLoad" xlink:show="other" /><linearGradient xmlns:xlink="http://www.w3.org/1999/xlink" xlink:href="#linearGradientF8FBFEEDF5FCDEEDFAD4E7F8E2E5E9" id="linearGradientF8FBFEEDF5FCDEEDFAD4E7F8E2E5E9_865767420" x1="0" y1="615.0" x2="0" y2="721.0" gradientUnits="userSpaceOnUse" xlink:type="simple" xlink:actuate="onLoad" xlink:show="other" /><linearGradient xmlns:xlink="http://www.w3.org/1999/xlink" xlink:href="#linearGradientF8FBFEEDF5FCDEEDFAD4E7F8E2E5E9" id="linearGradientF8FBFEEDF5FCDEEDFAD4E7F8E2E5E9_1827737846" x1="0" y1="615.0" x2="0" y2="721.0" gradientUnits="userSpaceOnUse" xlink:type="simple" xlink:actuate="onLoad" xlink:show="other" /><linearGradient xmlns:xlink="http://www.w3.org/1999/xlink" xlink:href="#linearGradientF8FBFEEDF5FCDEEDFAD4E7F8E2E5E9" id="linearGradientF8FBFEEDF5FCDEEDFAD4E7F8E2E5E9_903470053" x1="0" y1="70.0" x2="0" y2="176.0" gradientUnits="userSpaceOnUse" xlink:type="simple" xlink:actuate="onLoad" xlink:show="other" /><linearGradient xmlns:xlink="http://www.w3.org/1999/xlink" xlink:href="#linearGradientFF6666FF9696FFB6B6" id="linearGradientFF6666FF9696FFB6B6_2064336883" x1="0" y1="100.0" x2="0" y2="135.0" gradientUnits="userSpaceOnUse" xlink:type="simple" xlink:actuate="onLoad" xlink:show="other" /></defs></svg>
